<mxfile host="app.diagrams.net" agent="Mozilla/5.0 (Windows NT 10.0; Win64; x64) AppleWebKit/537.36 (KHTML, like Gecko) Chrome/132.0.0.0 Safari/537.36 OPR/117.0.0.0 (Edition std-1)" version="26.2.8">
  <diagram id="C5RBs43oDa-KdzZeNtuy" name="Page-1">
    <mxGraphModel dx="1398" dy="792" grid="1" gridSize="10" guides="1" tooltips="1" connect="1" arrows="1" fold="1" page="1" pageScale="1" pageWidth="827" pageHeight="1169" math="0" shadow="0">
      <root>
        <mxCell id="WIyWlLk6GJQsqaUBKTNV-0" />
        <mxCell id="WIyWlLk6GJQsqaUBKTNV-1" parent="WIyWlLk6GJQsqaUBKTNV-0" />
        <mxCell id="HBZ0S4kNAaco5UDRvwpf-9" style="edgeStyle=orthogonalEdgeStyle;rounded=0;orthogonalLoop=1;jettySize=auto;html=1;" edge="1" parent="WIyWlLk6GJQsqaUBKTNV-1" source="HBZ0S4kNAaco5UDRvwpf-1" target="HBZ0S4kNAaco5UDRvwpf-3">
          <mxGeometry relative="1" as="geometry" />
        </mxCell>
        <mxCell id="HBZ0S4kNAaco5UDRvwpf-1" value="Przyjscie przesyłki na sortownie/punkt przyjęć" style="rounded=1;whiteSpace=wrap;html=1;arcSize=50;" vertex="1" parent="WIyWlLk6GJQsqaUBKTNV-1">
          <mxGeometry x="350" y="20" width="140" height="70" as="geometry" />
        </mxCell>
        <mxCell id="HBZ0S4kNAaco5UDRvwpf-5" style="edgeStyle=orthogonalEdgeStyle;rounded=0;orthogonalLoop=1;jettySize=auto;html=1;entryX=0.5;entryY=0;entryDx=0;entryDy=0;" edge="1" parent="WIyWlLk6GJQsqaUBKTNV-1" source="HBZ0S4kNAaco5UDRvwpf-3" target="HBZ0S4kNAaco5UDRvwpf-10">
          <mxGeometry relative="1" as="geometry">
            <mxPoint x="260" y="270" as="targetPoint" />
          </mxGeometry>
        </mxCell>
        <mxCell id="HBZ0S4kNAaco5UDRvwpf-6" value="Tak" style="edgeLabel;html=1;align=center;verticalAlign=middle;resizable=0;points=[];" vertex="1" connectable="0" parent="HBZ0S4kNAaco5UDRvwpf-5">
          <mxGeometry x="-0.1567" y="4" relative="1" as="geometry">
            <mxPoint x="18" y="-14" as="offset" />
          </mxGeometry>
        </mxCell>
        <mxCell id="HBZ0S4kNAaco5UDRvwpf-7" style="edgeStyle=orthogonalEdgeStyle;rounded=0;orthogonalLoop=1;jettySize=auto;html=1;exitX=1;exitY=0.5;exitDx=0;exitDy=0;" edge="1" parent="WIyWlLk6GJQsqaUBKTNV-1" source="HBZ0S4kNAaco5UDRvwpf-3">
          <mxGeometry relative="1" as="geometry">
            <mxPoint x="570" y="260" as="targetPoint" />
          </mxGeometry>
        </mxCell>
        <mxCell id="HBZ0S4kNAaco5UDRvwpf-3" value="Czy paczka ma wewnetrzny kod" style="rhombus;whiteSpace=wrap;html=1;" vertex="1" parent="WIyWlLk6GJQsqaUBKTNV-1">
          <mxGeometry x="352" y="130" width="136" height="120" as="geometry" />
        </mxCell>
        <mxCell id="HBZ0S4kNAaco5UDRvwpf-8" value="Nie" style="text;html=1;align=center;verticalAlign=middle;resizable=0;points=[];autosize=1;strokeColor=none;fillColor=none;" vertex="1" parent="WIyWlLk6GJQsqaUBKTNV-1">
          <mxGeometry x="510" y="158" width="40" height="30" as="geometry" />
        </mxCell>
        <mxCell id="HBZ0S4kNAaco5UDRvwpf-13" style="edgeStyle=orthogonalEdgeStyle;rounded=0;orthogonalLoop=1;jettySize=auto;html=1;entryX=0.5;entryY=0;entryDx=0;entryDy=0;" edge="1" parent="WIyWlLk6GJQsqaUBKTNV-1" source="HBZ0S4kNAaco5UDRvwpf-10" target="HBZ0S4kNAaco5UDRvwpf-12">
          <mxGeometry relative="1" as="geometry" />
        </mxCell>
        <mxCell id="HBZ0S4kNAaco5UDRvwpf-10" value="Odzytuje dane&lt;div&gt;przypisuje je do odpowiednich zmiennych&lt;/div&gt;" style="shape=parallelogram;perimeter=parallelogramPerimeter;whiteSpace=wrap;html=1;fixedSize=1;" vertex="1" parent="WIyWlLk6GJQsqaUBKTNV-1">
          <mxGeometry x="170" y="270" width="120" height="60" as="geometry" />
        </mxCell>
        <mxCell id="HBZ0S4kNAaco5UDRvwpf-12" value="Wysłanie paczki dalej" style="rounded=1;whiteSpace=wrap;html=1;arcSize=50;" vertex="1" parent="WIyWlLk6GJQsqaUBKTNV-1">
          <mxGeometry x="170" y="390" width="120" height="60" as="geometry" />
        </mxCell>
        <mxCell id="HBZ0S4kNAaco5UDRvwpf-16" style="edgeStyle=orthogonalEdgeStyle;rounded=0;orthogonalLoop=1;jettySize=auto;html=1;exitX=0.625;exitY=0;exitDx=0;exitDy=0;" edge="1" parent="WIyWlLk6GJQsqaUBKTNV-1" source="HBZ0S4kNAaco5UDRvwpf-14">
          <mxGeometry relative="1" as="geometry">
            <mxPoint x="470" y="450" as="targetPoint" />
            <Array as="points">
              <mxPoint x="600" y="350" />
              <mxPoint x="600" y="400" />
              <mxPoint x="470" y="400" />
            </Array>
          </mxGeometry>
        </mxCell>
        <mxCell id="HBZ0S4kNAaco5UDRvwpf-17" style="edgeStyle=orthogonalEdgeStyle;rounded=0;orthogonalLoop=1;jettySize=auto;html=1;exitX=0.5;exitY=0;exitDx=0;exitDy=0;" edge="1" parent="WIyWlLk6GJQsqaUBKTNV-1" source="HBZ0S4kNAaco5UDRvwpf-14">
          <mxGeometry relative="1" as="geometry">
            <mxPoint x="600" y="450" as="targetPoint" />
            <mxPoint x="600" y="360" as="sourcePoint" />
            <Array as="points">
              <mxPoint x="600" y="440" />
            </Array>
          </mxGeometry>
        </mxCell>
        <mxCell id="HBZ0S4kNAaco5UDRvwpf-18" style="edgeStyle=orthogonalEdgeStyle;rounded=0;orthogonalLoop=1;jettySize=auto;html=1;exitX=0.375;exitY=0;exitDx=0;exitDy=0;" edge="1" parent="WIyWlLk6GJQsqaUBKTNV-1" source="HBZ0S4kNAaco5UDRvwpf-14">
          <mxGeometry relative="1" as="geometry">
            <mxPoint x="760" y="450" as="targetPoint" />
            <Array as="points">
              <mxPoint x="600" y="350" />
              <mxPoint x="600" y="400" />
              <mxPoint x="760" y="400" />
            </Array>
          </mxGeometry>
        </mxCell>
        <mxCell id="HBZ0S4kNAaco5UDRvwpf-14" value="Przypisuje dane odbiorcy, klasyfikuje przesyłke&amp;nbsp;" style="shape=hexagon;whiteSpace=wrap;html=1;fixedSize=1;size=30;direction=west;perimeter=hexagonPerimeter2;" vertex="1" parent="WIyWlLk6GJQsqaUBKTNV-1">
          <mxGeometry x="510" y="260" width="180" height="90" as="geometry" />
        </mxCell>
        <mxCell id="HBZ0S4kNAaco5UDRvwpf-19" value="Paczka" style="whiteSpace=wrap;html=1;aspect=fixed;" vertex="1" parent="WIyWlLk6GJQsqaUBKTNV-1">
          <mxGeometry x="450" y="450" width="50" height="50" as="geometry" />
        </mxCell>
        <mxCell id="HBZ0S4kNAaco5UDRvwpf-20" value="Gabaryt" style="whiteSpace=wrap;html=1;aspect=fixed;" vertex="1" parent="WIyWlLk6GJQsqaUBKTNV-1">
          <mxGeometry x="575" y="450" width="50" height="50" as="geometry" />
        </mxCell>
        <mxCell id="HBZ0S4kNAaco5UDRvwpf-21" value="List" style="whiteSpace=wrap;html=1;aspect=fixed;" vertex="1" parent="WIyWlLk6GJQsqaUBKTNV-1">
          <mxGeometry x="740" y="450" width="50" height="50" as="geometry" />
        </mxCell>
        <mxCell id="HBZ0S4kNAaco5UDRvwpf-22" value="&lt;h1 style=&quot;margin-top: 0px;&quot;&gt;Kod wewnetrzny&lt;/h1&gt;&lt;div&gt;Zawiera:&lt;/div&gt;&lt;div&gt;Destynacje, dane odbiorcy, sposób odbioru, dane o paczce np. rodzaj przesyłki(paczka/gabaryt/list), jeśli jest to paczka to informuje o wadze i rozmiarze&lt;/div&gt;&lt;div&gt;01-001PM16.7HubertB*****&lt;/div&gt;&lt;div&gt;&lt;span style=&quot;white-space: pre;&quot;&gt;&#x9;&lt;/span&gt;^ ^&lt;span style=&quot;white-space: pre;&quot;&gt;&#x9;&lt;/span&gt;&amp;nbsp; &amp;nbsp; ^&amp;nbsp; &amp;nbsp; &amp;nbsp; &amp;nbsp; &amp;nbsp; &amp;nbsp; &amp;nbsp; ^&lt;br&gt;&lt;/div&gt;&lt;div&gt;&lt;span style=&quot;white-space: pre;&quot;&gt;&#x9;&lt;/span&gt;|&amp;nbsp; |&lt;span style=&quot;white-space: pre;&quot;&gt;&#x9;&lt;/span&gt;&amp;nbsp; &amp;nbsp; |&lt;span style=&quot;white-space: pre;&quot;&gt;&#x9;&lt;span style=&quot;white-space: pre;&quot;&gt;&#x9;&lt;/span&gt; &lt;/span&gt;&amp;nbsp; &amp;nbsp;|&lt;br&gt;&lt;/div&gt;&lt;div&gt;miasto| mała| waga&amp;nbsp; &amp;nbsp;|&lt;/div&gt;&lt;div&gt;&lt;span style=&quot;white-space: pre;&quot;&gt;&#x9;&lt;/span&gt;&amp;nbsp; &amp;nbsp;| paczka|&lt;br&gt;&lt;/div&gt;" style="text;html=1;whiteSpace=wrap;overflow=hidden;rounded=0;" vertex="1" parent="WIyWlLk6GJQsqaUBKTNV-1">
          <mxGeometry x="20" y="38" width="320" height="182" as="geometry" />
        </mxCell>
      </root>
    </mxGraphModel>
  </diagram>
</mxfile>
